<svg width="168" height="234" viewBox="0 0 168 234" fill="none" xmlns="http://www.w3.org/2000/svg">
<path d="M96.6123 0H72.6123C68.194 0 64.6123 8.26551 64.6123 18.4615V131.538C64.6123 141.734 68.194 150 72.6123 150H96.6123C101.031 150 104.612 141.734 104.612 131.538V18.4615C104.612 8.26551 101.031 0 96.6123 0Z" fill="#135CFD"/>
<path d="M161.454 142.627L144.483 125.657C141.359 122.533 134.131 124.696 128.339 130.488L64.1002 194.726C58.3079 200.519 56.145 207.747 59.2692 210.871L76.2398 227.842C79.364 230.966 86.5922 228.803 92.3845 223.011L156.623 158.772C162.415 152.98 164.578 145.752 161.454 142.627Z" fill="#135CFD"/>
<path d="M22.6274 127.045L5.65685 144.015C2.53266 147.139 2.67403 152.346 5.97261 155.645L42.5548 192.227C45.8534 195.525 51.0601 195.667 54.1843 192.543L71.1549 175.572C74.2791 172.448 74.1377 167.241 70.8391 163.943L34.2569 127.36C30.9583 124.062 25.7516 123.92 22.6274 127.045Z" fill="#135CFD"/>
</svg>
