<?xml version="1.0" encoding="UTF-8"?>
<!DOCTYPE svg PUBLIC "-//W3C//DTD SVG 1.1//EN" "http://www.w3.org/Graphics/SVG/1.1/DTD/svg11.dtd">
<svg version="1.1" xmlns="http://www.w3.org/2000/svg" width="120" height="134" viewBox="0 0 120 134"><g fill="#135CFD"><path d="M77.4 53.3v-6.7c0-1.2-1-2.2-2.2-2.2H25.4c-1.2 0-2.2 1-2.2 2.2v6.7c0 1.2 1 2.2 2.2 2.2h49.8c1.2 0 2.2-1 2.2-2.2M116.9 70.2v-6.7c0-1.2-1-2.2-2.2-2.2H5.3c-1.2 0-2.2 1-2.2 2.2v6.7c0 1.2 1 2.2 2.2 2.2h109.4c1.2 0 2.2-1 2.2-2.2M77.4 104v-6.7c0-1.2-1-2.2-2.2-2.2H45.8c-1.2 0-2.2 1-2.2 2.2v6.7c0 1.2 1 2.2 2.2 2.2h29.4c1.2.1 2.2-.9 2.2-2.2M97.9 87.1v-6.7c0-1.2-1-2.2-2.2-2.2H25.5c-1.2 0-2.2 1-2.2 2.2v6.7c0 1.2 1 2.2 2.2 2.2h70.2c1.2 0 2.2-1 2.2-2.2M57 36.6v-6.7c0-1.2-1-2.2-2.2-2.2h-8.9c-1.2 0-2.2 1-2.2 2.2v6.7c0 1.2 1 2.2 2.2 2.2h8.9c1.2 0 2.2-1 2.2-2.2"/></g></svg>