<svg width="865" height="941" viewBox="0 0 865 941" fill="none" xmlns="http://www.w3.org/2000/svg">
<path d="M32.3703 795H8.09258C3.62317 795 0 798.582 0 803V933C0 937.418 3.62317 941 8.09258 941H32.3703C36.8397 941 40.4629 937.418 40.4629 933V803C40.4629 798.582 36.8397 795 32.3703 795Z" fill="white"/>
<path d="M168.933 564H144.655C140.185 564 136.562 567.582 136.562 572V702C136.562 706.418 140.185 710 144.655 710H168.933C173.402 710 177.025 706.418 177.025 702V572C177.025 567.582 173.402 564 168.933 564Z" fill="#3DEEB7"/>
<path d="M720.24 462H695.962C691.493 462 687.87 465.582 687.87 470V600C687.87 604.418 691.493 608 695.962 608H720.24C724.709 608 728.332 604.418 728.332 600V470C728.332 465.582 724.709 462 720.24 462Z" fill="#3DEEB7"/>
<path d="M856.802 608H832.524C828.055 608 824.432 611.582 824.432 616V746C824.432 750.418 828.055 754 832.524 754H856.802C861.272 754 864.895 750.418 864.895 746V616C864.895 611.582 861.272 608 856.802 608Z" fill="white"/>
<path d="M856.802 797H832.524C828.055 797 824.432 800.582 824.432 805V854C824.432 858.418 828.055 862 832.524 862H856.802C861.272 862 864.895 858.418 864.895 854V805C864.895 800.582 861.272 797 856.802 797Z" fill="#3DEEB7"/>
<path d="M720.24 0H695.962C691.493 0 687.87 3.58172 687.87 8V138C687.87 142.418 691.493 146 695.962 146H720.24C724.709 146 728.332 142.418 728.332 138V8C728.332 3.58172 724.709 0 720.24 0Z" fill="#FFE900"/>
<path d="M168.933 110H144.655C140.185 110 136.562 113.582 136.562 118V248C136.562 252.418 140.185 256 144.655 256H168.933C173.402 256 177.025 252.418 177.025 248V118C177.025 113.582 173.402 110 168.933 110Z" fill="#135CFD"/>
<path d="M32.3703 693H8.09258C3.62317 693 0 696.582 0 701V750C0 754.418 3.62317 758 8.09258 758H32.3703C36.8397 758 40.4629 754.418 40.4629 750V701C40.4629 696.582 36.8397 693 32.3703 693Z" fill="#135CFD"/>
<path d="M168.933 462H144.655C140.185 462 136.562 465.582 136.562 470V519C136.562 523.418 140.185 527 144.655 527H168.933C173.402 527 177.025 523.418 177.025 519V470C177.025 465.582 173.402 462 168.933 462Z" fill="#FFE900"/>
<path d="M720.24 649H695.962C691.493 649 687.87 652.582 687.87 657V706C687.87 710.418 691.493 714 695.962 714H720.24C724.709 714 728.332 710.418 728.332 706V657C728.332 652.582 724.709 649 720.24 649Z" fill="#135CFD"/>
<path d="M305.092 725H280.815C276.345 725 272.722 728.582 272.722 733V782C272.722 786.418 276.345 790 280.815 790H305.092C309.562 790 313.185 786.418 313.185 782V733C313.185 728.582 309.562 725 305.092 725Z" fill="#FFE900"/>
<path d="M32.3703 381H8.09258C3.62317 381 0 384.582 0 389V519C0 523.418 3.62317 527 8.09258 527H32.3703C36.8397 527 40.4629 523.418 40.4629 519V389C40.4629 384.582 36.8397 381 32.3703 381Z" fill="white"/>
</svg>
